<?xml version="1.0" encoding="UTF-8" standalone="no"?>
<!-- Created with Inkscape (http://www.inkscape.org/) -->

<svg
   xmlns:dc="http://purl.org/dc/elements/1.1/"
   xmlns:cc="http://creativecommons.org/ns#"
   xmlns:rdf="http://www.w3.org/1999/02/22-rdf-syntax-ns#"
   xmlns:svg="http://www.w3.org/2000/svg"
   xmlns="http://www.w3.org/2000/svg"
   xmlns:xlink="http://www.w3.org/1999/xlink"
   xmlns:sodipodi="http://sodipodi.sourceforge.net/DTD/sodipodi-0.dtd"
   xmlns:inkscape="http://www.inkscape.org/namespaces/inkscape"
   width="13.430524mm"
   height="20.161186mm"
   viewBox="0 0 13.430524 20.161186"
   version="1.1"
   id="svg8"
   inkscape:version="0.92.1 r15371"
   sodipodi:docname="waiwera_logo.svg"
   inkscape:export-filename="/home/acro018/software/mkdocs/virtualenvironment/test/testsite/docs/img/waiwera_logo.png"
   inkscape:export-xdpi="300.23022"
   inkscape:export-ydpi="300.23022">
  <defs
     id="defs2">
    <linearGradient
       inkscape:collect="always"
       id="linearGradient925">
      <stop
         style="stop-color:#ff0000;stop-opacity:1"
         offset="0"
         id="stop921" />
      <stop
         style="stop-color:#0147ff;stop-opacity:1"
         offset="1"
         id="stop923" />
    </linearGradient>
    <linearGradient
       inkscape:collect="always"
       xlink:href="#linearGradient925"
       id="linearGradient1147"
       gradientUnits="userSpaceOnUse"
       x1="38.92532"
       y1="24.876698"
       x2="38.390781"
       y2="113.20927"
       gradientTransform="matrix(0.27092211,0,0,0.27092211,3.5545519,-1.1848385)" />
  </defs>
  <sodipodi:namedview
     id="base"
     pagecolor="#ffffff"
     bordercolor="#666666"
     borderopacity="1.0"
     inkscape:pageopacity="0.0"
     inkscape:pageshadow="2"
     inkscape:zoom="7.919596"
     inkscape:cx="55.623935"
     inkscape:cy="27.610029"
     inkscape:document-units="mm"
     inkscape:current-layer="layer1"
     showgrid="false"
     inkscape:window-width="1920"
     inkscape:window-height="1135"
     inkscape:window-x="0"
     inkscape:window-y="0"
     inkscape:window-maximized="1"
     fit-margin-top="0"
     fit-margin-left="0"
     fit-margin-right="0"
     fit-margin-bottom="0" />
  <metadata
     id="metadata5">
    <rdf:RDF>
      <cc:Work
         rdf:about="">
        <dc:format>image/svg+xml</dc:format>
        <dc:type
           rdf:resource="http://purl.org/dc/dcmitype/StillImage" />
        <dc:title></dc:title>
      </cc:Work>
    </rdf:RDF>
  </metadata>
  <g
     inkscape:label="Layer 1"
     inkscape:groupmode="layer"
     id="layer1"
     transform="translate(-7.2589967,-5.5753053)">
    <path
       style="fill:url(#linearGradient1147);fill-opacity:1;stroke-width:0.10183749"
       d="M 12.785412,25.683657 C 10.876329,25.32737 9.0599909,24.381566 8.168567,22.907696 6.8935339,21.040753 6.9427559,18.603085 8.419037,16.82011 c 1.2368492,-1.810806 3.189431,-3.257273 4.10803,-5.218229 0.160865,-0.488352 0.200458,-0.995132 0.26965,-1.49594 0.592907,1.365049 1.024109,2.938716 0.174239,4.297619 -0.779413,1.215576 -2.02656,2.156909 -2.898078,3.31771 -0.933423,1.356018 -0.7730373,3.213488 0.589144,4.337263 1.012429,0.827202 2.493926,1.238202 3.905805,1.029931 1.05346,-0.195247 2.186152,-0.592203 2.821132,-1.353431 0.713302,-0.880278 1.070251,-2.125701 0.685746,-3.210382 -0.3638,-1.560332 -1.508209,-3.357681 -1.84545,-3.556244 -0.482634,0.05355 -0.488698,0.502566 -0.695899,1.036479 -0.338691,-0.597882 -0.639995,-1.127705 -0.990221,-2.094457 -0.284898,-0.786423 -0.538351,-1.765895 -0.674229,-2.422913 -0.448055,-1.8400078 -0.08797,-3.9535286 1.615211,-5.3064236 0.158171,-0.1336161 1.204467,-0.9832388 0.800099,-0.4081384 -0.832985,1.2036242 -0.71153,2.666618 -0.357961,3.9726434 0.663211,2.1780166 1.992729,4.1601296 3.16305,6.1722956 0.798748,1.208046 1.595962,2.501416 1.58203,3.9134 0.244059,2.587518 -1.995936,5.162312 -5.060237,5.775197 -0.929072,0.117529 -1.890763,0.181982 -2.825686,0.07717 z"
       id="path75"
       inkscape:connector-curvature="0"
       sodipodi:nodetypes="cccccccccccccscccccccc" />
  </g>
</svg>
